<svg viewBox="0 0 512 512" xmlns="http://www.w3.org/2000/svg" xmlns:xlink="http://www.w3.org/1999/xlink"><linearGradient id="a" gradientTransform="matrix(1 0 0 -1 0 -15338)" gradientUnits="userSpaceOnUse" x1="0" x2="512" y1="-15594" y2="-15594"><stop offset="0" stop-color="#31d8ff"/><stop offset="1" stop-color="#ff80ff"/></linearGradient><path d="m512 256c0 141.386719-114.613281 256-256 256s-256-114.613281-256-256 114.613281-256 256-256 256 114.613281 256 256zm0 0" fill="url(#a)"/><g fill="#fff"><path d="m134.515625 271c-4.082031 0-7.992187-1.664062-10.820313-4.613281l-31.015624-32.308594c-2.683594-2.792969-4.179688-6.515625-4.179688-10.386719v-120.191406c0-8.285156 6.714844-15 15-15h62.035156c8.28125 0 15 6.714844 15 15v120.191406c0 3.871094-1.5 7.59375-4.179687 10.386719l-31.015625 32.308594c-2.832032 2.949219-6.738282 4.613281-10.824219 4.613281zm-16.015625-53.34375 16.015625 16.683594 16.019531-16.683594v-99.15625h-32.035156zm47.035156 6.035156h.007813zm0 0"/><path d="m408.5 118.5h-184.808594c-8.285156 0-15-6.714844-15-15s6.714844-15 15-15h184.808594c8.285156 0 15 6.714844 15 15s-6.714844 15-15 15zm0 0"/><path d="m408.5 194.75h-184.808594c-8.285156 0-15-6.714844-15-15s6.714844-15 15-15h184.808594c8.285156 0 15 6.714844 15 15s-6.714844 15-15 15zm0 0"/><path d="m408.5 271h-184.808594c-8.285156 0-15-6.714844-15-15s6.714844-15 15-15h184.808594c8.285156 0 15 6.714844 15 15s-6.714844 15-15 15zm0 0"/><path d="m408.5 347.25h-305c-8.285156 0-15-6.714844-15-15s6.714844-15 15-15h305c8.285156 0 15 6.714844 15 15s-6.714844 15-15 15zm0 0"/><path d="m408.5 423.5h-305c-8.285156 0-15-6.714844-15-15s6.714844-15 15-15h305c8.285156 0 15 6.714844 15 15s-6.714844 15-15 15zm0 0"/></g></svg>